<?xml version="1.0" standalone="no"?>
<!DOCTYPE svg PUBLIC "-//W3C//DTD SVG 20010904//EN"
 "http://www.w3.org/TR/2001/REC-SVG-20010904/DTD/svg10.dtd">
<svg version="1.0" xmlns="http://www.w3.org/2000/svg"
 width="460.000000pt" height="460.000000pt" viewBox="0 0 460.000000 460.000000"
 preserveAspectRatio="xMidYMid meet">
<metadata>
Created by potrace 1.14, written by Peter Selinger 2001-2017
</metadata>
<g transform="translate(0.000000,460.000000) scale(0.100000,-0.100000)"
fill="#000000" stroke="none">
<path d="M1662 3917 c-6 -7 -17 -33 -25 -57 -30 -91 -65 -216 -70 -245 -3 -16
-23 -90 -46 -164 -22 -74 -41 -141 -41 -148 0 -8 -18 -73 -41 -146 -22 -73
-44 -152 -49 -177 -4 -25 -24 -97 -43 -160 -20 -63 -42 -144 -50 -180 -8 -36
-27 -103 -42 -150 -15 -47 -34 -114 -42 -150 -8 -36 -29 -114 -48 -175 -19
-60 -38 -127 -42 -149 -7 -34 -13 -40 -58 -57 -28 -10 -58 -19 -67 -19 -17 0
-204 -87 -242 -112 -50 -35 -114 -92 -143 -131 -30 -39 -33 -48 -33 -117 0
-48 5 -83 14 -95 7 -11 17 -36 21 -55 11 -54 53 -131 93 -173 43 -44 154 -125
191 -138 14 -5 48 -21 75 -36 56 -30 331 -118 421 -134 33 -6 104 -20 157 -30
285 -55 397 -64 863 -64 455 0 540 6 790 51 44 8 121 22 170 30 50 8 135 29
190 46 55 17 122 36 148 44 77 21 275 116 315 151 20 18 42 33 47 33 20 0 115
122 126 163 16 54 16 140 0 195 -18 63 -112 159 -224 226 -51 31 -98 56 -105
56 -21 0 -203 91 -206 103 -2 7 -21 68 -41 137 -21 69 -45 161 -55 205 -17 77
-61 225 -81 273 -5 13 -9 33 -9 44 0 12 -20 90 -44 172 -53 182 -103 359 -123
441 -9 33 -35 127 -59 209 -24 82 -44 156 -44 166 0 28 -58 192 -78 220 -23
32 -97 70 -137 70 -19 0 -35 7 -43 20 -12 20 -23 20 -646 20 -501 0 -636 -3
-644 -13z m272 -197 c5 -8 46 -51 90 -95 134 -133 136 -107 -23 -272 l-136
-142 -30 37 c-30 36 -30 38 -12 57 10 11 40 47 67 80 27 33 60 72 74 86 l26
26 -68 78 c-37 43 -79 93 -94 112 l-27 35 32 33 32 34 30 -27 c16 -15 34 -34
39 -42z m879 -397 c2 -5 2 -32 -1 -60 l-4 -53 -269 0 -269 0 0 60 0 60 269 0
c149 0 272 -3 274 -7z"/>
</g>
</svg>
